<svg height="512" viewBox="0 0 74 74" width="512" xmlns="http://www.w3.org/2000/svg" fill="#fc8816"><path d="M60.41 43.44a1 1 0 01-1-1v-2.97a1 1 0 012 0v2.97a1 1 0 01-1 1z"/><path d="M28.48 72a1 1 0 01-1-1V3a1 1 0 011.1-1l31.93 3.23a1 1 0 01.9 1v16.33a1 1 0 11-2 0V7.134L29.48 4.106v65.749L59.41 65.8V49.44a1 1 0 012 0v17.23a1 1 0 01-.865.991l-31.93 4.33a1.02 1.02 0 01-.135.009z"/><path d="M60.41 33.47a1 1 0 01-1-1v-2.91a1 1 0 012 0v2.91a1 1 0 01-1 1zM13.659 68.306a1 1 0 01-1-1V6.2a1 1 0 011-1h14.82a1 1 0 010 2h-13.82v60.106a1 1 0 01-1 1z"/><path d="M19.307 68.306a1 1 0 01-1-1V12.041a1 1 0 011-1h9.165a1 1 0 010 2h-8.165v54.265a1 1 0 01-1 1z"/><path d="M28.472 68.306H3.049a1 1 0 010-2h25.423a1 1 0 010 2zm42.479 0H55.643a1 1 0 010-2h15.308a1 1 0 010 2zM35.42 40.614A3.614 3.614 0 1139.034 37a3.618 3.618 0 01-3.614 3.614zm0-5.228A1.614 1.614 0 1037.034 37a1.616 1.616 0 00-1.614-1.614z"/></svg>